PathFileType	4	(X/Y/Z)	C:/Users/opensim2020/Desktop/walking_exp_matlab/subject01_walking06_straight_04.trc																																																																																																																															
DataRate	CameraRate	NumFrames	NumMarkers	Units	OrigDataRate	OrigDataStartFrame	OrigNumFrames																																																																																																																											
100	100	4	43	mm	100	2869	212																																																																																																																											
Frame#	Time	LFHD			RFHD			LBHD			RBHD			C7			T10			CLAV			STRN			RBAK			LSHO			LUPA			LELB			LFRM			LWRA			LWRB			LFIN			RSHO			RUPA			RELB			RFRM			RWRA			RWRB			RFIN			LASI			RASI			LPSI			RPSI			LTHI			LKNE			LTIB			LANK			LHEE			LTOE			RTHI			RKNE			RTIB			RANK			RHEE			RTOE			*39			*40			*41			*42		
		X1	Y1	Z1	X2	Y2	Z2	X3	Y3	Z3	X4	Y4	Z4	X5	Y5	Z5	X6	Y6	Z6	X7	Y7	Z7	X8	Y8	Z8	X9	Y9	Z9	X10	Y10	Z10	X11	Y11	Z11	X12	Y12	Z12	X13	Y13	Z13	X14	Y14	Z14	X15	Y15	Z15	X16	Y16	Z16	X17	Y17	Z17	X18	Y18	Z18	X19	Y19	Z19	X20	Y20	Z20	X21	Y21	Z21	X22	Y22	Z22	X23	Y23	Z23	X24	Y24	Z24	X25	Y25	Z25	X26	Y26	Z26	X27	Y27	Z27	X28	Y28	Z28	X29	Y29	Z29	X30	Y30	Z30	X31	Y31	Z31	X32	Y32	Z32	X33	Y33	Z33	X34	Y34	Z34	X35	Y35	Z35	X36	Y36	Z36	X37	Y37	Z37	X38	Y38	Z38	X39	Y39	Z39	X40	Y40	Z40	X41	Y41	Z41	X42	Y42	Z42	X43	Y43	Z43
																																																																																																																																		
80	0.79	-420.6008	1662.89563	1073.29846	-391.30634	1661.03308	1184.93481	-536.84216	1622.87646	1096.07422	-509.84024	1621.14636	1214.67456	-579.18811	1424.90051	1117.6333	-608.508	1129.50281	1104.57886	-436.12732	1355.39246	1114.73425	-391.61731	1203.44312	1097.55029	-632.90125	1223.28418	1175.54871	-495.10495	1398.69885	954.96271	-508.60233	1219.46875	856.22906	-494.60522	1065.96033	841.77289	-401.51797	994.07886	821.73029	-273.15762	946.78424	848.27936	-312.27301	910.92755	820.10687	-231.82713	886.16907	814.03247	-501.3342	1370.29688	1267.92285	-587.9165	1169.47461	1343.14099	-605.57458	1048.26733	1332.64246	-610.89709	928.48993	1359.4552	-556.10797	796.73773	1350.85059	-606.64752	806.84924	1378.31763	-587.42719	722.90466	1379.09558	-437.00186	923.44763	986.73016	-421.73074	932.21075	1203.71204	-618.54279	938.09241	1052.79382	-608.75842	940.52637	1198.49817	-535.01392	596.97833	939.08704	-581.86896	467.25745	950.60925	-712.94897	327.78522	941.32648	-843.755	148.55289	989.18329	-894.45032	151.03577	1040.70483	-744.08502	38.29711	997.10333	-412.00311	607.40143	1269.56152	-360.76178	459.40457	1242.87659	-378.92581	284.04544	1258.20605	-370.22742	76.88636	1217.78418	-417.27228	37.13185	1169.41418	-228.50829	40.81729	1215.87329	-404.22961	1696.64539	1166.07141	-1973.16846	1023.37506	3101.74341	-2012.48999	1022.01001	3140.66064	NaN	NaN	NaN
81	0.8	-411.06592	1664.14978	1076.51074	-381.45016	1662.08142	1188.01782	-527.17328	1623.82373	1099.56201	-499.78882	1621.81909	1217.99451	-569.12262	1425.43311	1120.27197	-596.95453	1130.07825	1106.20081	-425.64764	1356.63489	1117.22107	-380.48627	1204.97949	1099.62744	-621.84589	1223.64429	1177.60864	-484.81409	1399.97656	957.61407	-499.68011	1221.02295	858.79309	-486.99731	1067.2218	844.21686	-395.10361	994.17847	823.87292	-267.44287	944.84143	850.05811	-307.14066	909.62573	821.89148	-227.03912	883.57184	815.75726	-490.9552	1371.05481	1270.37659	-575.79199	1169.43884	1345.75244	-592.64722	1048.22498	1335.22034	-597.16058	928.45959	1361.94385	-541.81995	796.86493	1352.87866	-592.10425	806.86353	1380.86609	-572.65363	722.99445	1381.41223	-425.20145	924.35315	988.82251	-410.18753	933.6452	1205.32178	-606.66168	939.26001	1053.7666	-597.09027	942.49512	1199.672	-519.01373	596.77313	940.22815	-563.60864	466.73764	950.63507	-699.48303	331.31226	940.94281	-834.63928	155.34821	988.23895	-883.6723	160.62657	1040.56543	-743.17914	38.36499	996.85388	-400.9411	608.06696	1270.02197	-352.75351	458.77463	1243.50757	-373.72321	283.21829	1259.08789	-368.93677	76.76469	1217.43115	-416.99115	37.33471	1169.59241	-227.50266	39.88771	1214.90601	-394.74054	1697.60852	1169.23999	-1973.1803	1023.49207	3101.89355	-2012.59644	1022.04413	3140.61865	NaN	NaN	NaN
82	0.81	-401.46851	1665.45569	1079.63525	-371.55768	1663.09595	1191.03015	-517.41223	1624.82983	1102.85413	-489.72128	1622.4978	1221.17676	-558.89716	1426.08594	1122.87195	-586.46472	1131.10925	1107.99072	-415.20822	1357.96741	1119.60046	-369.47079	1206.51099	1101.64111	-610.72345	1224.06091	1179.63525	-474.65488	1401.33594	960.12561	-490.39276	1222.63696	861.04419	-479.75897	1068.84668	846.20697	-388.83655	994.21277	826.05896	-261.97629	942.62933	851.85437	-302.41766	908.1026	823.78223	-222.82596	880.41693	817.55884	-480.51126	1371.89966	1272.78149	-563.6084	1169.65283	1348.46118	-579.61566	1048.3501	1337.80408	-583.07538	928.69067	1364.48059	-526.74084	797.54022	1355.48621	-577.13922	807.14886	1383.39124	-557.35022	723.23462	1383.70544	-413.61279	925.54602	990.97864	-399.17276	934.84607	1206.7865	-595.03851	940.66675	1055.0365	-585.54968	944.28326	1201.0968	-502.23541	596.41901	941.15381	-544.42377	466.19897	950.16876	-684.64307	334.99728	940.83752	-824.31531	162.5605	987.34222	-870.98608	170.41281	1040.89844	-741.71094	38.48818	997.0332	-390.35614	608.42798	1270.97449	-345.20874	457.87296	1244.2439	-369.37537	282.7764	1260.0387	-368.36035	76.68061	1217.29993	-416.78848	37.32715	1169.58496	-226.72272	39.18578	1214.30164	-385.08322	1698.57178	1172.42175	-1973.08887	1023.42914	3101.85156	-2012.56897	1022.08771	3140.5354	NaN	NaN	NaN
83	0.82	-391.87445	1666.68896	1082.5105	-361.64252	1664.03638	1193.87927	-507.6265	1625.68616	1105.77307	-479.62851	1623.08936	1224.18787	-548.46698	1426.82861	1125.36475	-575.64063	1131.94299	1109.79724	-404.68005	1359.25061	1121.92114	-358.57309	1207.89697	1103.50842	-599.71021	1224.56787	1181.77747	-464.60446	1402.64441	962.48175	-480.74335	1224.24548	863.0885	-472.24872	1070.34082	848.98175	-382.77042	994.15228	828.23285	-256.87079	940.10223	853.64539	-298.27713	906.27893	825.45795	-219.0797	877.03876	819.29584	-469.92944	1372.84229	1275.14063	-551.52747	1170.0575	1350.86243	-566.60168	1048.76343	1340.57178	-568.84155	929.00537	1367.04419	-511.41904	798.26709	1357.94739	-561.89514	807.56818	1386.03955	-541.59698	723.64722	1386.2146	-402.34183	926.94775	993.29938	-388.09619	935.83582	1208.52917	-583.68762	942.17615	1056.67505	-574.12909	945.96985	1202.78259	-484.84088	595.91913	941.70557	-524.50128	465.59445	949.35858	-668.83246	339.07507	940.27454	-812.11365	169.35666	986.59985	-856.55804	179.96669	1041.3894	-740.60754	38.39329	997.62463	-380.75287	608.66992	1272.41711	-338.37869	457.29135	1245.2605	-365.45593	282.52704	1260.41968	-367.8793	76.65032	1217.08972	-416.79276	37.50158	1169.60925	-226.32083	38.64857	1214.00415	-375.34253	1699.6084	1175.42432	-1973.10071	1023.30347	3101.84595	-2012.58716	1022.03992	3140.68921	NaN	NaN	NaN
